<?xml version="1.0" encoding="utf-8"?>
<svg version="1.1" id="Layer_1" xmlns="http://www.w3.org/2000/svg" xmlns:xlink="http://www.w3.org/1999/xlink" x="0px" y="0px"
	 viewBox="0 0 1000 1000" style="enable-background:new 0 0 1000 1000;" xml:space="preserve">
<style type="text/css">
	.st0{fill:#999999;}
</style>
<path class="st0" d="M1000,500c0,277-223,500-500,500c-50,0-97-7-143-21c20-30,41-68,52-106c5-22,34-138,34-138c17,34,69,62,123,62
	c161,0,269-147,269-342c0-148-126-287-316-287c-238,0-357,170-357,312c0,87,32,163,102,191c11,5,22,0,25-12c2-9,8-30,11-40
	c3-12,1-17-9-28c-19-24-32-54-32-98c0-126,95-240,247-240c134,0,207,82,207,193c0,143-64,264-159,264c-52,0-91-42-79-95
	c16-64,44-133,44-178c0-41-22-75-66-75c-54,0-97,56-97,130c0,47,17,79,17,79s-56,231-65,273c-9,37-11,80-8,115C123,881,0,705,0,500
	C0,223,223,0,500,0S1000,223,1000,500z"/>
</svg>
