<?xml version="1.0" standalone="no"?><!DOCTYPE svg PUBLIC "-//W3C//DTD SVG 1.1//EN" "http://www.w3.org/Graphics/SVG/1.1/DTD/svg11.dtd"><svg class="SVGInline-svg" viewBox="0 0 1000 1000" version="1.1" xmlns="http://www.w3.org/2000/svg" xmlns:xlink="http://www.w3.org/1999/xlink" style="border-bottom-color:rgb(8, 114, 180);border-left-color:rgb(8, 114, 180);border-right-color:rgb(8, 114, 180);border-top-color:rgb(8, 114, 180);color:rgb(8, 114, 180);cursor:pointer;font-family:&quot;Proxima Nova&quot;, Tahoma, Helvetica, Verdana, sans-serif;font-size:30px;height:36px;line-height:36px;list-style-type:none;outline-color:rgb(8, 114, 180);text-align:center;text-decoration:none solid rgb(8, 114, 180);text-decoration-color:rgb(8, 114, 180);width:36px;column-rule-color:rgb(8, 114, 180);-webkit-font-smoothing:antialiased;perspective-origin:18px 18px;-webkit-text-emphasis-color:rgb(8, 114, 180);-webkit-text-fill-color:rgb(8, 114, 180);-webkit-text-stroke-color:rgb(8, 114, 180);transform-origin:18px 18px;fill:rgb(153, 153, 153);caret-color:rgb(8, 114, 180);"><path d="M1000 508c0 232-160 429-375 485V862c0-41-10-98-52-131 134-20 239-99 239-223 0-51-21-102-58-144 11-47 17-105-4-148-53 5-106 32-145 56-33-8-67-14-105-14s-73 6-106 14c-39-24-91-51-144-56-21 43-16 101-5 148-37 42-57 93-57 144 0 124 105 203 239 223-20 15-32 36-40 57-105 2-189-81-190-81-5-4-12-5-16-2-6 3-9 10-7 16 2 5 44 124 201 172v100C160 937 0 740 0 508 0 233 223 8 500 8c275 0 500 225 500 500z" style="border-bottom-color:rgb(8, 114, 180);border-left-color:rgb(8, 114, 180);border-right-color:rgb(8, 114, 180);border-top-color:rgb(8, 114, 180);color:rgb(8, 114, 180);cursor:pointer;font-family:&quot;Proxima Nova&quot;, Tahoma, Helvetica, Verdana, sans-serif;font-size:30px;height:auto;line-height:36px;list-style-type:none;outline-color:rgb(8, 114, 180);overflow-x:visible;overflow-y:visible;text-align:center;text-decoration:none solid rgb(8, 114, 180);text-decoration-color:rgb(8, 114, 180);width:auto;column-rule-color:rgb(8, 114, 180);-webkit-font-smoothing:antialiased;perspective-origin:0px 0px;-webkit-text-emphasis-color:rgb(8, 114, 180);-webkit-text-fill-color:rgb(8, 114, 180);-webkit-text-stroke-color:rgb(8, 114, 180);transform-origin:0px 0px;fill:rgb(153, 153, 153);d:path(&quot;M 1000 508 C 1000 740 840 937 625 993 V 862 C 625 821 615 764 573 731 C 707 711 812 632 812 508 C 812 457 791 406 754 364 C 765 317 771 259 750 216 C 697 221 644 248 605 272 C 572 264 538 258 500 258 S 427 264 394 272 C 355 248 303 221 250 216 C 229 259 234 317 245 364 C 208 406 188 457 188 508 C 188 632 293 711 427 731 C 407 746 395 767 387 788 C 282 790 198 707 197 707 C 192 703 185 702 181 705 C 175 708 172 715 174 721 C 176 726 218 845 375 893 V 993 C 160 937 0 740 0 508 C 0 233 223 8 500 8 C 775 8 1000 233 1000 508 Z&quot;);caret-color:rgb(8, 114, 180);"/></svg>