<?xml version="1.0" encoding="utf-8"?>
<svg version="1.1" id="Layer_1" xmlns="http://www.w3.org/2000/svg" xmlns:xlink="http://www.w3.org/1999/xlink" x="0px" y="0px"
	 viewBox="0 0 1000 1000" style="enable-background:new 0 0 1000 1000;" xml:space="preserve">
<style type="text/css">
	.st0{fill:#999999;}
</style>
<path class="st0" d="M1000,508c0,232-160,429-375,485V862c0-41-10-98-52-131c134-20,239-99,239-223c0-51-21-102-58-144
	c11-47,17-105-4-148c-53,5-106,32-145,56c-33-8-67-14-105-14s-73,6-106,14c-39-24-91-51-144-56c-21,43-16,101-5,148
	c-37,42-57,93-57,144c0,124,105,203,239,223c-20,15-32,36-40,57c-105,2-189-81-190-81c-5-4-12-5-16-2c-6,3-9,10-7,16
	c2,5,44,124,201,172v100C160,937,0,740,0,508C0,233,223,8,500,8C775,8,1000,233,1000,508z"/>
</svg>
