<?xml version="1.0" standalone="no"?><!DOCTYPE svg PUBLIC "-//W3C//DTD SVG 1.1//EN" "http://www.w3.org/Graphics/SVG/1.1/DTD/svg11.dtd"><svg class="SVGInline-svg" viewBox="0 0 1000 1000" version="1.1" xmlns="http://www.w3.org/2000/svg" xmlns:xlink="http://www.w3.org/1999/xlink" style="border-bottom-color:rgb(8, 114, 180);border-left-color:rgb(8, 114, 180);border-right-color:rgb(8, 114, 180);border-top-color:rgb(8, 114, 180);color:rgb(8, 114, 180);cursor:pointer;font-family:&quot;Proxima Nova&quot;, Tahoma, Helvetica, Verdana, sans-serif;font-size:30px;height:36px;line-height:36px;list-style-type:none;outline-color:rgb(8, 114, 180);text-align:center;text-decoration:none solid rgb(8, 114, 180);text-decoration-color:rgb(8, 114, 180);width:36px;column-rule-color:rgb(8, 114, 180);-webkit-font-smoothing:antialiased;perspective-origin:18px 18px;-webkit-text-emphasis-color:rgb(8, 114, 180);-webkit-text-fill-color:rgb(8, 114, 180);-webkit-text-stroke-color:rgb(8, 114, 180);transform-origin:18px 18px;fill:rgb(153, 153, 153);caret-color:rgb(8, 114, 180);"><path d="M1000 500c0 277-223 500-500 500S0 777 0 500 223 0 500 0s500 223 500 500zM375 260c-1-41-32-73-83-73-50 0-83 32-83 73s32 73 82 73h1c51 0 83-32 83-73zm-21 136H229v354h125V396zm458 166c0-114-56-187-146-187-50 0-87 30-104 75l-4-54H434c1 13 3 83 3 83v271h125V562c0-50 23-83 62-83 38 0 63 20 63 83v188h125V562z" style="border-bottom-color:rgb(8, 114, 180);border-left-color:rgb(8, 114, 180);border-right-color:rgb(8, 114, 180);border-top-color:rgb(8, 114, 180);color:rgb(8, 114, 180);cursor:pointer;font-family:&quot;Proxima Nova&quot;, Tahoma, Helvetica, Verdana, sans-serif;font-size:30px;height:auto;line-height:36px;list-style-type:none;outline-color:rgb(8, 114, 180);overflow-x:visible;overflow-y:visible;text-align:center;text-decoration:none solid rgb(8, 114, 180);text-decoration-color:rgb(8, 114, 180);width:auto;column-rule-color:rgb(8, 114, 180);-webkit-font-smoothing:antialiased;perspective-origin:0px 0px;-webkit-text-emphasis-color:rgb(8, 114, 180);-webkit-text-fill-color:rgb(8, 114, 180);-webkit-text-stroke-color:rgb(8, 114, 180);transform-origin:0px 0px;fill:rgb(153, 153, 153);d:path(&quot;M 1000 500 C 1000 777 777 1000 500 1000 S 0 777 0 500 S 223 0 500 0 S 1000 223 1000 500 Z M 375 260 C 374 219 343 187 292 187 C 242 187 209 219 209 260 S 241 333 291 333 H 292 C 343 333 375 301 375 260 Z M 354 396 H 229 V 750 H 354 V 396 Z M 812 562 C 812 448 756 375 666 375 C 616 375 579 405 562 450 L 558 396 H 434 C 435 409 437 479 437 479 V 750 H 562 V 562 C 562 512 585 479 624 479 C 662 479 687 499 687 562 V 750 H 812 V 562 Z&quot;);caret-color:rgb(8, 114, 180);"/></svg>