<?xml version="1.0" encoding="utf-8"?>
<svg version="1.1" id="Layer_1" xmlns="http://www.w3.org/2000/svg" xmlns:xlink="http://www.w3.org/1999/xlink" x="0px" y="0px"
	 viewBox="0 0 1000 1000" style="enable-background:new 0 0 1000 1000;" xml:space="preserve">
<style type="text/css">
	.st0{fill:#999999;}
</style>
<path class="st0" d="M1000,500c0,277-223,500-500,500S0,777,0,500S223,0,500,0S1000,223,1000,500z M375,260c-1-41-32-73-83-73
	c-50,0-83,32-83,73s32,73,82,73h1C343,333,375,301,375,260z M354,396H229v354h125V396z M812,562c0-114-56-187-146-187
	c-50,0-87,30-104,75l-4-54H434c1,13,3,83,3,83v271h125V562c0-50,23-83,62-83c38,0,63,20,63,83v188h125V562z"/>
</svg>
