<?xml version="1.0" standalone="no"?><!DOCTYPE svg PUBLIC "-//W3C//DTD SVG 1.1//EN" "http://www.w3.org/Graphics/SVG/1.1/DTD/svg11.dtd"><svg class="SVGInline-svg" viewBox="0 0 1000 1000" version="1.1" xmlns="http://www.w3.org/2000/svg" xmlns:xlink="http://www.w3.org/1999/xlink" style="border-bottom-color:rgb(8, 114, 180);border-left-color:rgb(8, 114, 180);border-right-color:rgb(8, 114, 180);border-top-color:rgb(8, 114, 180);color:rgb(8, 114, 180);cursor:pointer;font-family:&quot;Proxima Nova&quot;, Tahoma, Helvetica, Verdana, sans-serif;font-size:30px;height:36px;line-height:36px;list-style-type:none;outline-color:rgb(8, 114, 180);text-align:center;text-decoration:none solid rgb(8, 114, 180);text-decoration-color:rgb(8, 114, 180);width:36px;column-rule-color:rgb(8, 114, 180);-webkit-font-smoothing:antialiased;perspective-origin:18px 18px;-webkit-text-emphasis-color:rgb(8, 114, 180);-webkit-text-fill-color:rgb(8, 114, 180);-webkit-text-stroke-color:rgb(8, 114, 180);transform-origin:18px 18px;fill:rgb(153, 153, 153);caret-color:rgb(8, 114, 180);"><path d="M1000 500c0 277-223 500-500 500-50 0-97-7-143-21 20-30 41-68 52-106 5-22 34-138 34-138 17 34 69 62 123 62 161 0 269-147 269-342 0-148-126-287-316-287-238 0-357 170-357 312 0 87 32 163 102 191 11 5 22 0 25-12 2-9 8-30 11-40 3-12 1-17-9-28-19-24-32-54-32-98 0-126 95-240 247-240 134 0 207 82 207 193 0 143-64 264-159 264-52 0-91-42-79-95 16-64 44-133 44-178 0-41-22-75-66-75-54 0-97 56-97 130 0 47 17 79 17 79s-56 231-65 273c-9 37-11 80-8 115C123 881 0 705 0 500 0 223 223 0 500 0s500 223 500 500z" style="border-bottom-color:rgb(8, 114, 180);border-left-color:rgb(8, 114, 180);border-right-color:rgb(8, 114, 180);border-top-color:rgb(8, 114, 180);color:rgb(8, 114, 180);cursor:pointer;font-family:&quot;Proxima Nova&quot;, Tahoma, Helvetica, Verdana, sans-serif;font-size:30px;height:auto;line-height:36px;list-style-type:none;outline-color:rgb(8, 114, 180);overflow-x:visible;overflow-y:visible;text-align:center;text-decoration:none solid rgb(8, 114, 180);text-decoration-color:rgb(8, 114, 180);width:auto;column-rule-color:rgb(8, 114, 180);-webkit-font-smoothing:antialiased;perspective-origin:0px 0px;-webkit-text-emphasis-color:rgb(8, 114, 180);-webkit-text-fill-color:rgb(8, 114, 180);-webkit-text-stroke-color:rgb(8, 114, 180);transform-origin:0px 0px;fill:rgb(153, 153, 153);d:path(&quot;M 1000 500 C 1000 777 777 1000 500 1000 C 450 1000 403 993 357 979 C 377 949 398 911 409 873 C 414 851 443 735 443 735 C 460 769 512 797 566 797 C 727 797 835 650 835 455 C 835 307 709 168 519 168 C 281 168 162 338 162 480 C 162 567 194 643 264 671 C 275 676 286 671 289 659 C 291 650 297 629 300 619 C 303 607 301 602 291 591 C 272 567 259 537 259 493 C 259 367 354 253 506 253 C 640 253 713 335 713 446 C 713 589 649 710 554 710 C 502 710 463 668 475 615 C 491 551 519 482 519 437 C 519 396 497 362 453 362 C 399 362 356 418 356 492 C 356 539 373 571 373 571 S 317 802 308 844 C 299 881 297 924 300 959 C 123 881 0 705 0 500 C 0 223 223 0 500 0 S 1000 223 1000 500 Z&quot;);caret-color:rgb(8, 114, 180);"/></svg>