<?xml version="1.0" encoding="utf-8"?>
<svg version="1.1" id="Layer_1" xmlns="http://www.w3.org/2000/svg" xmlns:xlink="http://www.w3.org/1999/xlink" x="0px" y="0px"
	 viewBox="0 0 1000 1000" style="enable-background:new 0 0 1000 1000;" xml:space="preserve">
<style type="text/css">
	.st0{fill:#999999;}
</style>
<path class="st0" d="M1000,500c0,277-223,500-500,500S0,777,0,500S223,0,500,0S1000,223,1000,500z M875,317c-25,11-53,18-82,22
	c30-17,51-45,61-79c-28,17-57,28-89,35c-25-28-62-45-103-45c-78,0-141,63-141,142c0,10,1,22,3,32c-118-5-223-62-294-149
	c-11,22-18,46-18,72c0,50,24,93,62,118c-23,0-45-7-64-18v2c0,69,49,126,114,140c-12,3-24,4-37,4c-9,0-19-1-27-2c18,57,71,95,132,96
	c-48,38-108,65-176,65c-11,0-23-1-33-2c62,40,138,62,217,62c262,0,404-216,404-404v-18C832,371,855,345,875,317z"/>
</svg>
