<?xml version="1.0" standalone="no"?><!DOCTYPE svg PUBLIC "-//W3C//DTD SVG 1.1//EN" "http://www.w3.org/Graphics/SVG/1.1/DTD/svg11.dtd"><svg class="SVGInline-svg" viewBox="0 0 1000 1000" version="1.1" xmlns="http://www.w3.org/2000/svg" xmlns:xlink="http://www.w3.org/1999/xlink" style="border-bottom-color:rgb(8, 114, 180);border-left-color:rgb(8, 114, 180);border-right-color:rgb(8, 114, 180);border-top-color:rgb(8, 114, 180);color:rgb(8, 114, 180);cursor:pointer;font-family:&quot;Proxima Nova&quot;, Tahoma, Helvetica, Verdana, sans-serif;font-size:30px;height:36px;line-height:36px;list-style-type:none;outline-color:rgb(8, 114, 180);text-align:center;text-decoration:none solid rgb(8, 114, 180);text-decoration-color:rgb(8, 114, 180);width:36px;column-rule-color:rgb(8, 114, 180);-webkit-font-smoothing:antialiased;perspective-origin:18px 18px;-webkit-text-emphasis-color:rgb(8, 114, 180);-webkit-text-fill-color:rgb(8, 114, 180);-webkit-text-stroke-color:rgb(8, 114, 180);transform-origin:18px 18px;fill:rgb(153, 153, 153);caret-color:rgb(8, 114, 180);"><path d="M1000 500c0 277-223 500-500 500S0 777 0 500 223 0 500 0s500 223 500 500zM875 317c-25 11-53 18-82 22 30-17 51-45 61-79-28 17-57 28-89 35-25-28-62-45-103-45-78 0-141 63-141 142 0 10 1 22 3 32-118-5-223-62-294-149-11 22-18 46-18 72 0 50 24 93 62 118-23 0-45-7-64-18v2c0 69 49 126 114 140-12 3-24 4-37 4-9 0-19-1-27-2 18 57 71 95 132 96-48 38-108 65-176 65-11 0-23-1-33-2 62 40 138 62 217 62 262 0 404-216 404-404v-18c28-19 51-45 71-73z" style="border-bottom-color:rgb(8, 114, 180);border-left-color:rgb(8, 114, 180);border-right-color:rgb(8, 114, 180);border-top-color:rgb(8, 114, 180);color:rgb(8, 114, 180);cursor:pointer;font-family:&quot;Proxima Nova&quot;, Tahoma, Helvetica, Verdana, sans-serif;font-size:30px;height:auto;line-height:36px;list-style-type:none;outline-color:rgb(8, 114, 180);overflow-x:visible;overflow-y:visible;text-align:center;text-decoration:none solid rgb(8, 114, 180);text-decoration-color:rgb(8, 114, 180);width:auto;column-rule-color:rgb(8, 114, 180);-webkit-font-smoothing:antialiased;perspective-origin:0px 0px;-webkit-text-emphasis-color:rgb(8, 114, 180);-webkit-text-fill-color:rgb(8, 114, 180);-webkit-text-stroke-color:rgb(8, 114, 180);transform-origin:0px 0px;fill:rgb(153, 153, 153);d:path(&quot;M 1000 500 C 1000 777 777 1000 500 1000 S 0 777 0 500 S 223 0 500 0 S 1000 223 1000 500 Z M 875 317 C 850 328 822 335 793 339 C 823 322 844 294 854 260 C 826 277 797 288 765 295 C 740 267 703 250 662 250 C 584 250 521 313 521 392 C 521 402 522 414 524 424 C 406 419 301 362 230 275 C 219 297 212 321 212 347 C 212 397 236 440 274 465 C 251 465 229 458 210 447 V 449 C 210 518 259 575 324 589 C 312 592 300 593 287 593 C 278 593 268 592 260 591 C 278 648 331 686 392 687 C 344 725 284 752 216 752 C 205 752 193 751 183 750 C 245 790 321 812 400 812 C 662 812 804 596 804 408 V 390 C 832 371 855 345 875 317 Z&quot;);caret-color:rgb(8, 114, 180);"/></svg>